HIERARCHY
ROOT Hips
{
	OFFSET 0.000000 0.000000 0.000000
	CHANNELS 6 Xposition Yposition Zposition Zrotation Yrotation Xrotation
	JOINT LeftUpLeg
	{
		OFFSET 0.103459 1.857827 10.548521
		CHANNELS 6 Xposition Yposition Zposition Zrotation Yrotation Xrotation
		JOINT LeftLeg
		{
			OFFSET 43.499979 0.000107 0.000090
			CHANNELS 6 Xposition Yposition Zposition Zrotation Yrotation Xrotation
			JOINT LeftFoot
			{
				OFFSET 42.372168 0.000034 0.000010
				CHANNELS 6 Xposition Yposition Zposition Zrotation Yrotation Xrotation
				JOINT LeftToe
				{
					OFFSET 17.299924 -0.000089 0.000018
					CHANNELS 6 Xposition Yposition Zposition Zrotation Yrotation Xrotation
					End Site
					{
						OFFSET 6.000000 0.000000 0.000000
					}
				}
			}
		}
	}
	JOINT RightUpLeg
	{
		OFFSET 0.103456 1.857863 -10.548456
		CHANNELS 6 Xposition Yposition Zposition Zrotation Yrotation Xrotation
		JOINT RightLeg
		{
			OFFSET 43.500042 -0.000002 0.000029
			CHANNELS 6 Xposition Yposition Zposition Zrotation Yrotation Xrotation
			JOINT RightFoot
			{
				OFFSET 42.372205 0.000033 0.000070
				CHANNELS 6 Xposition Yposition Zposition Zrotation Yrotation Xrotation
				JOINT RightToe
				{
					OFFSET 17.299951 -0.000065 0.000070
					CHANNELS 6 Xposition Yposition Zposition Zrotation Yrotation Xrotation
					End Site
					{
						OFFSET 6.000000 0.000000 0.000000
					}
				}
			}
		}
	}
	JOINT Spine
	{
		OFFSET 6.901935 -2.603664 0.000033
		CHANNELS 6 Xposition Yposition Zposition Zrotation Yrotation Xrotation
		JOINT Spine1
		{
			OFFSET 12.588142 0.000010 -0.000051
			CHANNELS 6 Xposition Yposition Zposition Zrotation Yrotation Xrotation
			JOINT Spine2
			{
				OFFSET 12.343166 -0.000098 0.000026
				CHANNELS 6 Xposition Yposition Zposition Zrotation Yrotation Xrotation
				JOINT Neck
				{
					OFFSET 25.832894 0.000061 0.000061
					CHANNELS 6 Xposition Yposition Zposition Zrotation Yrotation Xrotation
					JOINT Head
					{
						OFFSET 11.766657 -0.000023 -0.000040
						CHANNELS 6 Xposition Yposition Zposition Zrotation Yrotation Xrotation
						End Site
						{
							OFFSET 12.000000 0.000000 0.000000
						}
					}
				}
				JOINT LeftShoulder
				{
					OFFSET 19.745926 -1.480308 6.000100
					CHANNELS 6 Xposition Yposition Zposition Zrotation Yrotation Xrotation
					JOINT LeftArm
					{
						OFFSET 11.284141 -0.000067 -0.000035
						CHANNELS 6 Xposition Yposition Zposition Zrotation Yrotation Xrotation
						JOINT LeftForeArm
						{
							OFFSET 33.000033 0.000026 -0.000005
							CHANNELS 6 Xposition Yposition Zposition Zrotation Yrotation Xrotation
							JOINT LeftHand
							{
								OFFSET 25.200056 0.000059 -0.000020
								CHANNELS 6 Xposition Yposition Zposition Zrotation Yrotation Xrotation
								End Site
								{
									OFFSET 9.000000 0.000000 0.000000
								}
							}
						}
					}
				}
				JOINT RightShoulder
				{
					OFFSET 19.746108 -1.480276 -5.999995
					CHANNELS 6 Xposition Yposition Zposition Zrotation Yrotation Xrotation
					JOINT RightArm
					{
						OFFSET 11.284248 -0.000015 -0.000063
						CHANNELS 6 Xposition Yposition Zposition Zrotation Yrotation Xrotation
						JOINT RightForeArm
						{
							OFFSET 33.000071 0.000058 0.000097
							CHANNELS 6 Xposition Yposition Zposition Zrotation Yrotation Xrotation
							JOINT RightHand
							{
								OFFSET 25.199705 0.000114 0.000349
								CHANNELS 6 Xposition Yposition Zposition Zrotation Yrotation Xrotation
								End Site
								{
									OFFSET 9.000000 0.000000 0.000000
								}
							}
						}
					}
				}
			}
		}
	}
}
MOTION
Frames: 6
Frame Time: 0.0333333
0.0000 89.5000 0.0000 89.6187 -5.3477 92.2622 0.1035 1.8578 10.5485 163.5390 -3.3536 173.0214 43.5000 0.0001 0.0001 -65.6057 8.7780 -0.4591 42.3722 0.0000 0.0000 119.8682 -0.1679 -7.7879 17.2999 -0.0001 0.0000 21.4546 0.0031 -0.0001 0.1035 1.8579 -10.5485 165.8110 2.7548 -176.7715 43.5000 -0.0000 0.0000 -30.5918 3.6640 5.6840 42.3722 0.0000 0.0001 87.6958 -3.2682 4.2311 17.3000 -0.0001 0.0001 21.4546 -0.0031 0.0000 6.9019 -2.6037 0.0000 -2.5167 -0.0679 0.3357 12.5881 0.0000 -0.0001 2.9415 0.5639 0.8105 12.3432 -0.0001 0.0000 -2.3695 0.3033 0.7993 25.8329 0.0001 0.0001 3.9562 6.5464 -2.4454 11.7667 -0.0000 -0.0000 14.9072 -14.1441 -0.3639 19.7459 -1.4803 6.0001 -59.7285 -84.1675 -119.5939 11.2841 -0.0001 -0.0000 -37.3506 76.5733 -39.0877 33.0000 0.0000 -0.0000 -28.0030 -8.7197 -5.9473 25.2001 0.0001 -0.0000 12.8595 1.5532 18.3587 19.7461 -1.4803 -6.0000 -80.9381 80.1348 98.6746 11.2842 -0.0000 -0.0001 -17.3810 -82.7933 24.6822 33.0001 0.0001 0.0001 -35.3667 12.3204 3.8776 25.1997 0.0001 0.0003 12.2982 10.3537 -7.4738
0.4110 90.3893 3.0000 89.9685 -5.3482 93.4090 0.1035 1.8578 10.5485 157.1242 -2.3268 173.9303 43.5000 0.0001 0.0001 -64.7044 8.6662 -0.3512 42.3722 0.0000 0.0000 112.6366 -0.8013 -7.0319 17.2999 -0.0001 0.0000 21.4546 0.0031 -0.0001 0.1035 1.8579 -10.5485 172.2709 3.0071 -175.6428 43.5000 -0.0000 0.0000 -30.5918 3.6640 5.6840 42.3722 0.0000 0.0001 96.2222 -3.0152 5.4232 17.3000 -0.0001 0.0001 21.4546 -0.0031 0.0000 6.9019 -2.6037 0.0000 -2.4944 -0.4670 -0.8273 12.5881 0.0000 -0.0001 2.9353 0.6559 -0.0983 12.3432 -0.0001 0.0000 -2.3754 0.3304 0.3434 25.8329 0.0001 0.0001 4.2408 6.2484 -0.1675 11.7667 -0.0000 -0.0000 14.9072 -14.1441 -0.3639 19.7459 -1.4803 6.0001 -65.9051 -82.9864 -113.3601 11.2841 -0.0001 -0.0000 -24.4856 77.7597 -25.7061 33.0000 0.0000 -0.0000 -29.6536 -8.6831 -6.5184 25.2001 0.0001 -0.0000 12.8595 1.5532 18.3587 19.7461 -1.4803 -6.0000 -78.9510 81.4673 100.6687 11.2842 -0.0000 -0.0001 -38.9213 -81.5446 46.4749 33.0001 0.0001 0.0001 -33.6989 12.5050 3.4298 25.1997 0.0001 0.0003 12.2982 10.3537 -7.4738
0.8003 91.0931 6.0000 90.2995 -5.3634 94.4951 0.1035 1.8578 10.5485 151.0696 -1.1729 174.5946 43.5000 0.0001 0.0001 -62.0509 8.3270 -0.0440 42.3722 0.0000 0.0000 103.9935 -1.4254 -6.0338 17.2999 -0.0001 0.0000 21.4546 0.0031 -0.0001 0.1035 1.8579 -10.5485 178.3797 3.0103 -174.5082 43.5000 -0.0000 0.0000 -30.5918 3.6640 5.6840 42.3722 0.0000 0.0001 104.3001 -2.9408 6.5750 17.3000 -0.0001 0.0001 21.4546 -0.0031 0.0000 6.9019 -2.6037 0.0000 -2.4743 -0.8450 -1.9291 12.5881 0.0000 -0.0001 2.9281 0.7430 -0.9591 12.3432 -0.0001 0.0000 -2.3812 0.3561 -0.0884 25.8329 0.0001 0.0001 4.4990 5.9560 1.9875 11.7667 -0.0000 -0.0000 14.9072 -14.1441 -0.3639 19.7459 -1.4803 6.0001 -70.0626 -81.8136 -109.1485 11.2841 -0.0001 -0.0000 -10.5753 78.1986 -11.3071 33.0000 0.0000 -0.0000 -31.2172 -8.6634 -7.0600 25.2001 0.0001 -0.0000 12.8595 1.5532 18.3587 19.7461 -1.4803 -6.0000 -76.4017 82.7166 103.2246 11.2842 -0.0000 -0.0001 -52.7982 -79.5728 60.5914 33.0001 0.0001 0.0001 -32.1195 12.6914 3.0107 25.1997 0.0001 0.0003 12.2982 10.3537 -7.4738
1.1474 91.4646 9.0000 90.5940 -5.3891 95.4631 0.1035 1.8578 10.5485 145.6877 -0.0209 175.0040 43.5000 0.0001 0.0001 -57.7934 7.7533 0.4152 42.3722 0.0000 0.0000 94.3919 -1.9333 -4.8309 17.2999 -0.0001 0.0000 21.4546 0.0031 -0.0001 0.1035 1.8579 -10.5485 -176.1905 2.8122 -173.4740 43.5000 -0.0000 0.0000 -30.5918 3.6640 5.6840 42.3722 0.0000 0.0001 111.5004 -3.0114 7.6016 17.3000 -0.0001 0.0001 21.4546 -0.0031 0.0000 6.9019 -2.6037 0.0000 -2.4571 -1.1819 -2.9113 12.5881 0.0000 -0.0001 2.9207 0.8205 -1.7265 12.3432 -0.0001 0.0000 -2.3865 0.3789 -0.4733 25.8329 0.0001 0.0001 4.7196 5.6874 3.9063 11.7667 -0.0000 -0.0000 14.9072 -14.1441 -0.3639 19.7459 -1.4803 6.0001 -72.8636 -80.7404 -106.2991 11.2841 -0.0001 -0.0000 2.0136 77.9637 1.7172 33.0000 0.0000 -0.0000 -32.6110 -8.6582 -7.5430 25.2001 0.0001 -0.0000 12.8595 1.5532 18.3587 19.7461 -1.4803 -6.0000 -73.2671 83.8134 106.3650 11.2842 -0.0000 -0.0001 -61.0589 -77.4599 69.0665 33.0001 0.0001 0.0001 -30.7118 12.8671 2.6413 25.1997 0.0001 0.0003 12.2982 10.3537 -7.4738
1.4338 91.4263 12.0000 90.8364 -5.4189 96.2619 0.1035 1.8578 10.5485 141.2534 0.9997 175.2008 43.5000 0.0001 0.0001 -52.1672 6.9441 0.9544 42.3722 0.0000 0.0000 84.3398 -2.2419 -3.5006 17.2999 -0.0001 0.0000 21.4546 0.0031 -0.0001 0.1035 1.8579 -10.5485 -171.7252 2.5040 -172.6245 43.5000 -0.0000 0.0000 -30.5918 3.6640 5.6840 42.3722 0.0000 0.0001 117.4417 -3.1661 8.4368 17.3000 -0.0001 0.0001 21.4546 -0.0031 0.0000 6.9019 -2.6037 0.0000 -2.4434 -1.4599 -3.7219 12.5881 0.0000 -0.0001 2.9137 0.8843 -2.3597 12.3432 -0.0001 0.0000 -2.3910 0.3977 -0.7909 25.8329 0.0001 0.0001 4.8947 5.4603 5.4884 11.7667 -0.0000 -0.0000 14.9072 -14.1441 -0.3639 19.7459 -1.4803 6.0001 -74.7229 -79.8411 -104.3998 11.2841 -0.0001 -0.0000 11.6593 77.3453 11.7226 33.0000 0.0000 -0.0000 -33.7612 -8.6627 -7.9417 25.2001 0.0001 -0.0000 12.8595 1.5532 18.3587 19.7461 -1.4803 -6.0000 -69.7121 84.6994 109.9248 11.2842 -0.0000 -0.0001 -65.9558 -75.5711 74.1409 33.0001 0.0001 0.0001 -29.5502 13.0187 2.3398 25.1997 0.0001 0.0003 12.2982 10.3537 -7.4738
1.6444 90.9863 15.0000 91.0141 -5.4458 96.8492 0.1035 1.8578 10.5485 137.9942 1.7817 175.2594 43.5000 0.0001 0.0001 -45.4802 5.9165 1.4882 42.3722 0.0000 0.0000 74.3739 -2.3142 -2.1492 17.2999 -0.0001 0.0000 21.4546 0.0031 -0.0001 0.1035 1.8579 -10.5485 -168.4525 2.1938 -172.0116 43.5000 -0.0000 0.0000 -30.5918 3.6640 5.6840 42.3722 0.0000 0.0001 121.8102 -3.3346 9.0386 17.3000 -0.0001 0.0001 21.4546 -0.0031 0.0000 6.9019 -2.6037 0.0000 -2.4337 -1.6643 -4.3182 12.5881 0.0000 -0.0001 2.9081 0.9313 -2.8255 12.3432 -0.0001 0.0000 -2.3943 0.4116 -1.0245 25.8329 0.0001 0.0001 5.0194 5.2902 6.6512 11.7667 -0.0000 -0.0000 14.9072 -14.1441 -0.3639 19.7459 -1.4803 6.0001 -75.8907 -79.1737 -103.2025 11.2841 -0.0001 -0.0000 18.0399 76.6764 18.3681 33.0000 0.0000 -0.0000 -34.6072 -8.6710 -8.2348 25.2001 0.0001 -0.0000 12.8595 1.5532 18.3587 19.7461 -1.4803 -6.0000 -66.2459 85.3337 113.3946 11.2842 -0.0000 -0.0001 -68.7882 -74.1273 77.1044 33.0001 0.0001 0.0001 -28.6960 13.1340 2.1199 25.1997 0.0001 0.0003 12.2982 10.3537 -7.4738
